<svg version="1.0" xmlns="http://www.w3.org/2000/svg"
 width="318.000000pt" height="1280.000000pt" viewBox="0 0 318.000000 1280.000000"
 preserveAspectRatio="xMidYMid meet">

<g transform="translate(0.000000,1280.000000) scale(0.100000,-0.100000)"
fill="#000000" stroke="none">
<path d="M2260 12791 c0 -5 14 -53 30 -107 136 -438 234 -1013 271 -1574 15
-224 6 -791 -16 -1000 -126 -1241 -568 -2249 -1356 -3099 -186 -200 -291 -324
-378 -446 -609 -856 -788 -1977 -536 -3355 144 -784 423 -1611 842 -2495 137
-289 373 -729 380 -709 2 6 -21 62 -50 125 -118 249 -279 675 -383 1012 -314
1016 -427 1975 -328 2797 85 712 322 1340 697 1850 111 150 190 242 371 430
193 201 307 333 423 495 431 603 680 1355 743 2245 13 185 13 660 0 855 -52
788 -227 1637 -505 2454 -75 221 -192 531 -201 531 -2 0 -4 -4 -4 -9z" fill="#47000b" opacity="0.5"/>
</g>
</svg>
